<?xml version="1.0" standalone="no"?><!DOCTYPE svg PUBLIC "-//W3C//DTD SVG 1.1//EN" "http://www.w3.org/Graphics/SVG/1.1/DTD/svg11.dtd"><svg t="1599802365555" class="icon" viewBox="0 0 1027 1024" version="1.1" xmlns="http://www.w3.org/2000/svg" p-id="3099" xmlns:xlink="http://www.w3.org/1999/xlink" width="48.140625" height="48"><defs><style type="text/css"></style></defs><path d="M1002.496 444.928l-38.912-41.472c-22.528-60.416-56.32-130.56-113.664-186.88 18.432-74.752 29.696-154.624-1.536-215.04 0 0-23.552 60.416-41.984 69.12 12.288 0 33.28 1.536 36.864 15.872-12.8-5.632-31.232-9.728-45.056-5.632-9.728 7.168-19.456 16.896-19.456 16.896s39.424 14.336 50.688 47.104c-14.848-11.264-52.736-38.912-77.824-32.768-23.04 6.144-41.984 13.312-49.152 12.8-1.024-0.512-1.536-0.512-2.56-1.024L629.76 49.664c-3.072-1.536-4.608-3.072-6.144-6.144C558.08-16.896 457.216-13.824 396.8 50.176L327.168 123.904c-9.216-2.048-24.576-7.168-42.496-11.776-25.088-6.144-62.464 21.504-77.824 32.768 11.264-32.768 50.688-47.104 50.688-47.104s-9.216-9.728-19.456-16.896c-13.312-4.096-32.256 0-45.056 5.632 3.584-14.336 25.088-15.872 36.864-15.872C212.992 61.952 189.44 1.536 189.44 1.536c-30.72 59.904-20.48 138.752-2.048 212.992-62.464 56.32-100.352 127.488-123.392 187.904l-39.936 42.496C8.192 461.312 0 481.792 0 504.32c0 48.128 38.4 86.528 86.016 86.016h20.992v323.072c0 60.928 49.664 110.592 110.592 110.592h195.072c20.992 0 36.864-15.872 36.864-36.864V670.72H563.2v316.416c0 20.992 15.872 36.864 36.864 36.864h198.144c60.416 0 110.08-49.664 110.08-110.592v-323.072h31.744c22.528 0 45.056-8.192 60.928-24.064 33.28-33.28 35.328-87.552 1.536-121.344zM315.904 133.632c1.536-0.512 2.56-1.536 4.096-2.048l-0.512 0.512c-1.536 0.512-2.56 1.024-3.584 1.536z" p-id="3100" fill="#d81e06"></path></svg>